<svg width="15" height="15" viewBox="0 0 15 15" fill="none" xmlns="http://www.w3.org/2000/svg">
<path d="M6.15895 0.588418C6.51328 -0.196099 7.62735 -0.1961 7.98167 0.588417L9.55941 4.08171C9.65961 4.30357 9.8373 4.48126 10.0592 4.58146L13.5525 6.1592C14.337 6.51352 14.337 7.62759 13.5525 7.98192L10.0592 9.55965C9.8373 9.65985 9.65961 9.83754 9.55941 10.0594L7.98167 13.5527C7.62735 14.3372 6.51328 14.3372 6.15895 13.5527L4.58122 10.0594C4.48102 9.83754 4.30333 9.65985 4.08147 9.55965L0.588174 7.98192C-0.196343 7.62759 -0.196344 6.51352 0.588173 6.1592L4.08147 4.58146C4.30333 4.48126 4.48102 4.30357 4.58122 4.08172L6.15895 0.588418Z" fill="#9011FF"/>
</svg>
