<svg width="15" height="14" viewBox="0 0 15 14" fill="none" xmlns="http://www.w3.org/2000/svg">
<path d="M6.08333 3.41667H10.0833C11.969 3.41667 12.9118 3.41667 13.4975 4.00245C14.0833 4.58824 14.0833 5.53105 14.0833 7.41667V8.75C14.0833 10.6356 14.0833 11.5784 13.4975 12.1642C12.9118 12.75 11.969 12.75 10.0833 12.75H6.08333C3.56918 12.75 2.3121 12.75 1.53105 11.969C0.75 11.1879 0.75 9.93082 0.75 7.41667V6.08333C0.75 3.56918 0.75 2.3121 1.53105 1.53105C2.3121 0.75 3.56918 0.75 6.08333 0.75H8.75C9.36998 0.75 9.67997 0.75 9.9343 0.818148C10.6245 1.00308 11.1636 1.54218 11.3485 2.23236C11.4167 2.4867 11.4167 2.79669 11.4167 3.41667" stroke="white" stroke-width="1.5" stroke-linecap="round"/>
</svg>
